<?xml version="1.0" standalone="no"?>
<!DOCTYPE svg PUBLIC "-//W3C//DTD SVG 20010904//EN"
 "http://www.w3.org/TR/2001/REC-SVG-20010904/DTD/svg10.dtd">
<svg version="1.0" xmlns="http://www.w3.org/2000/svg"
 width="409.664583pt" height="76.000000pt" viewBox="0 0 409.664583 76.000000"
 preserveAspectRatio="xMidYMid meet">
<metadata>
Created by potrace 1.12, written by Peter Selinger 2001-2015
</metadata>
<g transform="translate(-97.000000,176.000000) scale(0.100000,-0.100000)"
fill="#000000" stroke="none">
<path d="M1710 1380 c0 -331 2 -380 15 -380 13 0 15 49 15 380 0 331 -2 380
-15 380 -13 0 -15 -49 -15 -380z"/>
<path d="M1090 1526 c0 -34 0 -34 30 -23 22 8 38 8 59 0 35 -13 41 -9 41 29 0
28 0 28 -65 28 l-65 0 0 -34z"/>
<path d="M1250 1500 l0 -60 -60 0 -60 0 0 -65 0 -65 60 0 60 0 0 -60 0 -60 65
0 65 0 0 60 0 60 60 0 60 0 0 65 0 65 -60 0 -60 0 0 60 0 60 -65 0 -65 0 0
-60z"/>
<path d="M2393 1539 c-31 -20 -45 -49 -23 -49 5 0 28 7 50 16 28 11 40 22 38
33 -5 24 -29 24 -65 0z"/>
<path d="M1959 1455 c-64 -35 -75 -190 -17 -242 27 -25 114 -25 152 0 26 17
27 20 11 37 -15 16 -19 17 -43 4 -36 -19 -48 -18 -72 6 -15 15 -20 33 -20 78
0 62 11 82 45 82 26 0 45 -18 45 -42 0 -26 47 -24 55 2 20 64 -84 114 -156 75z"/>
<path d="M2160 1340 c0 -148 1 -150 89 -150 51 0 81 17 81 46 0 12 -11 15 -52
13 l-53 -3 -3 104 c-3 106 -8 120 -44 120 -16 0 -18 -13 -18 -130z"/>
<path d="M2374 1457 c-2 -7 -3 -69 -2 -138 l3 -124 28 -3 27 -3 0 140 0 141
-25 0 c-14 0 -28 -6 -31 -13z"/>
<path d="M2500 1330 l0 -141 28 3 27 3 -3 100 -2 100 25 -55 c59 -132 68 -145
100 -145 l30 0 3 138 c1 81 -1 137 -7 137 -37 0 -41 -12 -41 -109 l0 -96 -44
100 c-43 98 -45 100 -80 103 l-36 3 0 -141z"/>
<path d="M2780 1330 l0 -140 30 0 30 0 0 140 0 140 -30 0 -30 0 0 -140z"/>
<path d="M2953 1460 c-32 -13 -53 -51 -60 -107 -14 -126 64 -194 172 -149 36
15 44 33 24 53 -8 8 -21 7 -46 -3 -47 -20 -78 -1 -86 53 -11 68 9 113 50 113
18 0 28 -8 36 -30 13 -34 56 -44 58 -12 3 34 -2 47 -27 70 -26 23 -79 29 -121
12z"/>
<path d="M3170 1340 c-22 -72 -38 -135 -35 -140 3 -6 15 -10 26 -10 14 0 21 9
26 30 5 28 8 30 54 30 38 0 49 -4 54 -19 9 -28 31 -44 53 -37 19 6 18 13 -22
139 l-42 132 -36 3 -37 3 -41 -131z m100 -27 c0 -8 -13 -13 -31 -13 -23 0 -30
4 -26 14 3 8 11 34 18 58 l11 43 14 -45 c8 -25 14 -51 14 -57z"/>
<path d="M3494 1457 c-2 -7 -3 -69 -2 -138 l3 -124 35 -3 c55 -6 120 8 141 29
25 25 24 70 -1 102 -18 22 -18 26 -4 38 9 7 14 24 12 43 -2 24 -11 35 -38 48
-42 21 -138 24 -146 5z m110 -40 c29 -21 16 -51 -22 -55 -29 -3 -32 -1 -32 26
0 44 19 54 54 29z m7 -107 c29 -16 25 -58 -8 -71 -38 -14 -53 -5 -53 34 0 48
18 59 61 37z"/>
<path d="M3742 1333 l3 -138 28 -3 27 -3 0 140 0 141 -30 0 -31 0 3 -137z"/>
<path d="M3870 1340 c0 -146 2 -150 80 -150 52 0 80 15 80 42 0 19 -4 20 -50
16 l-50 -5 0 101 c0 105 -7 126 -42 126 -16 0 -18 -11 -18 -130z"/>
<path d="M4097 1336 c-37 -112 -43 -136 -30 -140 29 -12 42 -5 48 24 6 28 9
30 55 30 42 0 49 -3 54 -24 7 -27 30 -39 57 -31 16 5 13 18 -28 140 l-45 135
-33 0 -33 0 -45 -134z m92 20 c15 -59 16 -56 -20 -56 -23 0 -30 4 -26 14 3 8
9 31 13 50 8 48 19 45 33 -8z"/>
<path d="M4335 1458 c-3 -8 -4 -70 -3 -139 l3 -124 28 -3 c26 -3 27 -2 27 47
0 80 35 81 68 0 20 -47 33 -56 65 -43 13 5 12 12 -5 55 -11 27 -25 49 -31 49
-6 0 0 11 13 25 31 33 32 87 3 116 -27 28 -159 41 -168 17z m123 -75 c3 -27
-1 -33 -22 -39 -35 -8 -46 2 -46 42 0 34 1 35 33 32 28 -3 32 -7 35 -35z"/>
<path d="M4580 1330 l0 -140 53 0 c72 0 124 17 143 45 24 36 29 123 11 168
-20 47 -63 67 -147 67 l-60 0 0 -140z m150 43 c13 -38 13 -48 0 -85 -14 -39
-18 -43 -52 -46 l-38 -3 0 91 0 91 38 -3 c34 -3 38 -7 52 -45z"/>
<path d="M4889 1455 c-45 -24 -68 -105 -50 -173 21 -78 100 -114 170 -78 76
40 77 212 1 251 -36 19 -87 19 -121 0z m91 -45 c15 -15 20 -33 20 -76 0 -71
-12 -94 -50 -94 -38 0 -50 23 -50 94 0 43 5 61 20 76 11 11 25 20 30 20 6 0
19 -9 30 -20z"/>
<path d="M970 1375 l0 -65 60 0 60 0 0 -60 0 -60 65 0 c58 0 65 2 65 20 0 12
-5 17 -14 14 -8 -3 -40 24 -80 68 -49 54 -68 82 -73 110 -5 36 -7 38 -44 38
l-39 0 0 -65z"/>
</g>
</svg>
